<svg xmlns="http://www.w3.org/2000/svg" viewBox="0 0 700 700"><defs><style>.cls-1{fill:#da8428;}</style></defs><title>logo</title><g id="Layer_2" data-name="Layer 2"><g id="Layer_1-2" data-name="Layer 1"><path class="cls-1" d="M351,66.42a5.8,5.8,0,0,0-5,2.74L329,96.27a5.85,5.85,0,0,0-.11,6l12.28,21.27H230.06a5.85,5.85,0,0,0-5.85,5.85v28.29a5.85,5.85,0,0,0,5.85,5.85H364.24l7.51,13H205.06a5.85,5.85,0,0,0-5.85,5.85v28.29a5.85,5.85,0,0,0,5.85,5.85H394.84L480.6,365.1a5.85,5.85,0,0,1-2.14,8L352.64,445.74a5.85,5.85,0,0,1-5.85,0L221.26,373.26a5.85,5.85,0,0,1-2.14-8L277.56,264a5.85,5.85,0,0,0-2.14-8l-24.5-14.15a5.85,5.85,0,0,0-8,2.14L181.56,350.34l-20,34.64L142,418.82,125,448.39a5.85,5.85,0,0,0,2.14,8l24.49,14.14a5.85,5.85,0,0,0,8-2.14l17.07-29.57L193.27,410a5.85,5.85,0,0,1,8-2.14l126,72.75a5.85,5.85,0,0,1,2.93,5.07v39a5.85,5.85,0,0,1-5.85,5.85H273.06a5.85,5.85,0,0,0-5.85,5.85v28.29a5.85,5.85,0,0,0,5.85,5.85h51.29a5.85,5.85,0,0,1,5.85,5.85v51.29a5.85,5.85,0,0,0,5.85,5.85h28.29a5.85,5.85,0,0,0,5.85-5.85V576.43a5.85,5.85,0,0,1,5.85-5.85h51.29a5.85,5.85,0,0,0,5.85-5.85V536.43a5.85,5.85,0,0,0-5.85-5.85H376.06a5.85,5.85,0,0,1-5.85-5.85V485.16a5.85,5.85,0,0,1,2.93-5.07l125.32-72.35a5.85,5.85,0,0,1,8,2.14l16.88,29.25,17.07,29.57a5.85,5.85,0,0,0,8,2.14l24.5-14.15a5.85,5.85,0,0,0,2.14-8L558,419.13l-19.81-34.32-20-34.64L441,216.58h54.32a5.85,5.85,0,0,0,5.85-5.85V182.43a5.85,5.85,0,0,0-5.85-5.85H417.94l-7.51-13h59.92a5.85,5.85,0,0,0,5.85-5.85V129.43a5.85,5.85,0,0,0-5.85-5.85h-83L356,69.35A5.81,5.81,0,0,0,351,66.42Z"/><path class="cls-1" d="M350,40A310.09,310.09,0,0,1,470.65,635.66,310.09,310.09,0,0,1,229.35,64.34,308,308,0,0,1,350,40m0-40C156.7,0,0,156.7,0,350S156.7,700,350,700,700,543.3,700,350,543.3,0,350,0Z"/></g></g></svg>